<svg xmlns="http://www.w3.org/2000/svg" xmlns:xlink="http://www.w3.org/1999/xlink" version="1.1" x="0px" y="0px" viewBox="0 0 100 125" enable-background="new 0 0 100 100" xml:space="preserve"><g display="none"><rect x="-554.195" y="-861.895" display="inline" fill="#000000" width="1286.89" height="1225.445"/></g><g><path d="M90.503,65.498c0.525-1.37-0.158-2.906-1.528-3.433l-5.012-1.924c-1.371-0.524-2.906,0.158-3.433,1.528   c-0.525,1.37,0.158,2.906,1.528,3.433l5.012,1.924c0.313,0.12,0.635,0.177,0.951,0.177C89.09,67.203,90.097,66.555,90.503,65.498z"/><path d="M91.694,38.207c-0.404-1.41-1.878-2.228-3.286-1.821l-5.16,1.48c-1.41,0.404-2.226,1.876-1.821,3.286   c0.335,1.166,1.397,1.925,2.553,1.925c0.242,0,0.489-0.033,0.733-0.104l5.16-1.48C91.283,41.089,92.098,39.617,91.694,38.207z"/><path d="M69.793,24.227c0.479,0.36,1.04,0.535,1.597,0.535c0.806,0,1.602-0.365,2.124-1.059l3.23-4.287   c0.883-1.172,0.648-2.837-0.523-3.721c-1.17-0.882-2.837-0.648-3.721,0.523l-3.23,4.287C68.386,21.678,68.621,23.343,69.793,24.227   z"/><path d="M12.929,67.026l5.012-1.924c1.37-0.526,2.054-2.063,1.528-3.433c-0.526-1.37-2.062-2.053-3.433-1.528l-5.012,1.924   c-1.37,0.526-2.054,2.063-1.528,3.433c0.406,1.057,1.413,1.705,2.481,1.705C12.294,67.203,12.616,67.147,12.929,67.026z"/><path d="M15.288,42.974c0.244,0.07,0.491,0.104,0.733,0.104c1.155,0,2.218-0.759,2.553-1.925c0.404-1.41-0.411-2.882-1.821-3.286   l-5.16-1.48c-1.408-0.406-2.882,0.411-3.286,1.821s0.411,2.882,1.821,3.286L15.288,42.974z"/><path d="M23.78,15.695c-1.172,0.884-1.406,2.549-0.523,3.721l3.23,4.287c0.522,0.693,1.318,1.059,2.124,1.059   c0.557,0,1.118-0.175,1.597-0.535c1.172-0.884,1.406-2.549,0.523-3.721l-3.23-4.287C26.617,15.047,24.95,14.814,23.78,15.695z"/><path d="M47.344,9.686v5.368c0,1.467,1.189,2.656,2.656,2.656s2.656-1.189,2.656-2.656V9.686c0-1.467-1.189-2.656-2.656-2.656   S47.344,8.219,47.344,9.686z"/><path d="M43.892,92.971h12.177c3.602,0,6.531-2.93,6.531-6.531v-8.738c0.783-1.368,2.239-2.398,4.175-3.769l0.959-0.682   c2.789-2.004,4.816-4.044,6.382-6.421c3.074-4.665,4.767-10.263,4.767-15.761c0-15.657-12.738-28.395-28.395-28.395   c-0.123,0-0.244,0.004-0.365,0.008l-0.109,0.005l-0.176-0.005c-0.122-0.004-0.243-0.008-0.365-0.008   c-15.657,0-28.395,12.737-28.395,28.395c0,5.498,1.693,11.096,4.767,15.76c1.565,2.377,3.593,4.417,6.382,6.421l0.959,0.683   c1.936,1.37,3.391,2.4,4.174,3.768v8.739C37.361,90.041,40.291,92.971,43.892,92.971z M58.717,86.439   c0,1.46-1.188,2.648-2.648,2.648H43.892c-1.46,0-2.649-1.188-2.649-2.648v-7.06h17.474V86.439z M45.592,48.82   c0.203,2.186,2.17,6.733,5.007,6.043c2.171-0.528,3.491-3.895,3.714-5.857c0.298-2.615-0.58-5.256-1.951-7.502   c2.258-0.72,4.812,0.463,6.231,2.361c1.419,1.898,1.877,4.357,1.907,6.727c0.054,4.264-1.137,8.45-2.654,12.435   c-1.432,3.762-3.162,7.411-5.17,10.9c-0.286,0.498-0.573,1.013-0.689,1.57h-4.088c-0.107-0.554-0.377-1.076-0.65-1.577   c-3.722-6.836-7.243-14.057-7.759-21.823c-0.174-2.616,0.037-5.374,1.407-7.608c1.37-2.235,4.16-3.758,6.665-2.986   C46.222,43.695,45.354,46.261,45.592,48.82z M49.962,43.396c0.755,1.171,1.544,3.167,1.392,5.117   c-0.056,0.716-0.172,2.483-1.198,2.646c-1.18,0.188-1.517-1.763-1.586-2.646C48.418,46.564,49.206,44.567,49.962,43.396z    M35.429,70.764l-0.937-0.667c-2.392-1.718-4.109-3.435-5.406-5.403c-2.661-4.038-4.126-8.876-4.126-13.624   c0-13.516,10.997-24.512,24.512-24.512l0.542,0.013l0.474-0.013C64.004,26.557,75,37.554,75,51.069   c0,4.747-1.465,9.586-4.126,13.624c-1.297,1.969-3.015,3.686-5.406,5.404l-0.936,0.666c-2.084,1.475-3.922,2.789-5.127,4.733   h-4.096c3.388-6.147,6.419-12.588,7.736-19.479c0.539-2.824,0.784-5.745,0.243-8.569c-0.541-2.823-1.93-5.555-4.2-7.318   c-0.036-0.028-0.072-0.056-0.109-0.083c-2.263-1.701-5.41-2.319-8.012-1.209c-0.362,0.155-0.731,0.344-1.124,0.327   c-0.332-0.014-0.637-0.173-0.941-0.307c-3.679-1.623-8.22,0.445-10.4,3.825c-2.18,3.379-2.423,7.672-1.898,11.659   c0.99,7.521,4.411,14.476,8.022,21.155h-4.071C39.351,73.552,37.514,72.238,35.429,70.764z"/></g><text x="0" y="115" fill="#000000" font-size="5px" font-weight="bold" font-family="'Helvetica Neue', Helvetica, Arial-Unicode, Arial, Sans-serif">Created by Oksana Latysheva</text><text x="0" y="120" fill="#000000" font-size="5px" font-weight="bold" font-family="'Helvetica Neue', Helvetica, Arial-Unicode, Arial, Sans-serif">from the Noun Project</text></svg>